# xmcd CD database file
#
# Track frame offsets:
#	150
#	19220
#	37037
#
# Disc length: 744 seconds
#
# Revision: 0
# Processed by: cddbd v1.5PL3 Copyright (c) Steve Scherf et al.
# Submitted via: CDex 1.50beta10
#
DISCID=1f02e603
DTITLE=GARNET CROW - 千以上の言葉を並べても…
DYEAR=2000
DGENRE=JPop
TTITLE0=千以上の言葉を並べても…
TTITLE1=blue bird
TTITLE2=千以上の言葉を並べても… -Instrumental-
EXTD=YEAR: 2000
EXTT0=
EXTT1=
EXTT2=
PLAYORDER=
